# xmcd
#
# Track frame offsets: 
#        150
#        14879
#        32039
#        48253
#        65192
#        78998
#        101203
#        113759
#        132629
#        149785
#        166361
#        194941
#
# Disc length: 2792 seconds
#
# Revision: 0
# Processed by: cddbd v1.5.2PL0 Copyright (c) Steve Scherf et al.
# Submitted via: ExactAudioCopy v1.3
#
DISCID=c20ae60c
DTITLE=Fathead - Blues Weather
DYEAR=1998
DGENRE=Blues
TTITLE0=Blues Weather
TTITLE1=The Backbug Song
TTITLE2=Monkey Time
TTITLE3=Tell Me Why
TTITLE4=Real Crazy Mama
TTITLE5=Doot Do Doot
TTITLE6=Song For The Nation
TTITLE7=Let's Have A Party
TTITLE8=Hurry Now
TTITLE9=Gypsy Feet
TTITLE10=You Can't Always Get What You Want
TTITLE11=Steak and Potatoes
EXTD=
EXTT0=
EXTT1=
EXTT2=
EXTT3=
EXTT4=
EXTT5=
EXTT6=
EXTT7=
EXTT8=
EXTT9=
EXTT10=
EXTT11=
PLAYORDER=
